<svg width="194" height="45" viewBox="0 0 194 45" fill="none" xmlns="http://www.w3.org/2000/svg">
<g clip-path="url(#clip0_241_163)">
<path d="M4.94706 14.8295C4.52437 15.2715 4.28857 15.8587 4.28857 16.4693C4.28857 17.08 4.52437 17.6672 4.94706 18.1092L6.60404 19.749L23.1142 3.32702L19.8122 0.0473633L4.94706 14.8295Z" fill="#70A4D7"/>
<path d="M34.6536 14.7586L28.0495 8.18741C27.6055 7.76258 27.0139 7.52539 26.3985 7.52539C25.7831 7.52539 25.1915 7.76258 24.7475 8.18741L9.88232 22.9696L11.5393 24.6094C11.9833 25.0342 12.5749 25.2715 13.1903 25.2715C13.8058 25.2715 14.3974 25.0342 14.8414 24.6094L26.3925 13.1188L29.6946 16.3984L16.4864 29.5408L19.7884 32.8204L34.6536 18.0383C34.8713 17.8239 35.0441 17.5685 35.1621 17.287C35.2801 17.0055 35.3408 16.7035 35.3408 16.3984C35.3408 16.0934 35.2801 15.7913 35.1621 15.5098C35.0441 15.2284 34.8713 14.973 34.6536 14.7586Z" fill="#70A4D7"/>
<path d="M23.0905 42.671L21.4454 44.3108C21.0014 44.7357 20.4098 44.9729 19.7944 44.9729C19.1789 44.9729 18.5873 44.7357 18.1433 44.3108L0 26.2728L3.29012 22.9932L23.0905 42.671Z" fill="#B7D9F4"/>
<path d="M39.5887 19.7017L42.8907 22.9932L21.4334 44.3109C20.9894 44.7357 20.3978 44.973 19.7824 44.973C19.1669 44.973 18.5753 44.7357 18.1313 44.3109L16.4744 42.671L39.5887 19.7017Z" fill="#9BB9D4"/>
<path d="M19.7884 39.3911L16.4863 42.6708L18.1433 44.3106C18.5873 44.7354 19.1789 44.9727 19.7943 44.9727C20.4098 44.9727 21.0014 44.7354 21.4454 44.3106L23.0904 42.6708L19.7884 39.3911Z" fill="#70A4D7"/>
<path d="M66 13V15.3134H55.8723V22.2985H64.0702V24.5224H55.8723V31.6866H66V34H53V13H66Z" fill="#192E43"/>
<path d="M72.1462 13.1342C72.3124 13.2413 72.4604 13.3721 72.5849 13.522L85.3838 29.3463C85.3838 29.0928 85.3838 28.8541 85.3838 28.6155C85.3838 28.3769 85.3838 28.1383 85.3838 27.9146V13H88V33.9997H86.4334C86.228 34.0037 86.0244 33.9629 85.8381 33.8804C85.6521 33.7809 85.4916 33.6434 85.3682 33.4777L72.5065 17.713C72.5065 17.9715 72.5065 18.2102 72.5065 18.4289C72.5065 18.6676 72.5065 18.8913 72.5065 19.0852V33.9997H70V13.0447H71.5666C71.7694 13.0351 71.972 13.0656 72.1619 13.1342" fill="#192E43"/>
<path d="M106 13V15.3134H95.0932V22.2985H103.922V24.5224H95.0932V31.6866H106V34H92V13H106Z" fill="#192E43"/>
<path d="M112.912 23.1718H115.977C116.739 23.182 117.498 23.0814 118.23 22.8736C118.822 22.6945 119.374 22.406 119.854 22.0237C120.285 21.6656 120.625 21.2168 120.851 20.7114C121.074 20.1762 121.188 19.604 121.188 19.0264C121.224 18.4881 121.126 17.9492 120.902 17.4558C120.678 16.9624 120.334 16.5291 119.9 16.1931C118.779 15.4814 117.45 15.1462 116.115 15.2387H112.912V23.1718ZM112.912 25.2297V33.9978H110V13.002H116.13C117.324 12.9818 118.514 13.1172 119.67 13.4046C120.566 13.6238 121.406 14.0198 122.138 14.5678C122.769 15.0517 123.264 15.6825 123.579 16.4019C123.908 17.1663 124.069 17.989 124.054 18.8176C124.06 19.5244 123.936 20.2266 123.686 20.8904C123.449 21.5282 123.096 22.1192 122.644 22.635C122.162 23.1621 121.592 23.6058 120.958 23.9473C120.255 24.3207 119.502 24.5968 118.72 24.7674C119.106 24.9931 119.435 25.2986 119.686 25.6622L126 33.9978H123.364C123.131 34.0114 122.898 33.9614 122.692 33.8534C122.486 33.7454 122.316 33.5837 122.199 33.3865L116.575 25.9306C116.435 25.7247 116.246 25.5556 116.023 25.4385C115.739 25.3154 115.429 25.2592 115.119 25.2744L112.912 25.2297Z" fill="#192E43"/>
<path d="M139.805 16.2949C139.733 16.4211 139.634 16.5312 139.514 16.6183C139.405 16.6988 139.27 16.7404 139.132 16.736C138.91 16.7182 138.7 16.6304 138.535 16.486C138.306 16.3243 138.015 16.1332 137.678 15.942C137.279 15.7238 136.859 15.5417 136.424 15.398C135.851 15.2217 135.251 15.1372 134.649 15.1479C134.061 15.1378 133.476 15.2275 132.921 15.4127C132.46 15.5564 132.034 15.7863 131.666 16.089C131.333 16.3721 131.072 16.724 130.901 17.1183C130.729 17.5141 130.64 17.939 130.641 18.3681C130.615 18.8919 130.771 19.4091 131.085 19.8385C131.408 20.2369 131.808 20.5715 132.263 20.8237C132.789 21.1056 133.342 21.337 133.915 21.5148L135.812 22.1323C136.457 22.3393 137.091 22.5799 137.709 22.8529C138.315 23.1016 138.878 23.4388 139.376 23.8527C139.869 24.2606 140.27 24.761 140.554 25.3231C140.867 26.0031 141.019 26.7414 140.998 27.4845C141.003 28.3593 140.837 29.2271 140.509 30.043C140.196 30.8212 139.716 31.5276 139.101 32.1163C138.45 32.7247 137.673 33.1955 136.822 33.4985C135.844 33.8491 134.806 34.0187 133.762 33.9984C132.449 34.0153 131.147 33.7699 129.937 33.2779C128.83 32.8174 127.832 32.1473 127 31.3076L127.841 29.9695C127.923 29.8667 128.021 29.7773 128.132 29.7049C128.246 29.6352 128.379 29.5994 128.515 29.6019C128.791 29.6244 129.051 29.7388 129.249 29.9254C129.568 30.1825 129.906 30.4182 130.259 30.6312C130.74 30.9238 131.253 31.1654 131.788 31.3517C132.464 31.5874 133.181 31.6973 133.9 31.6752C134.528 31.6847 135.153 31.5953 135.751 31.4106C136.262 31.2469 136.731 30.9813 137.128 30.6312C137.505 30.2998 137.802 29.8934 138 29.4402C138.191 28.9716 138.289 28.473 138.29 27.9698C138.304 27.4474 138.149 26.9337 137.847 26.4994C137.543 26.086 137.145 25.7442 136.684 25.4996C136.161 25.212 135.607 24.9802 135.032 24.8084L133.135 24.235C132.489 24.0394 131.856 23.8087 131.238 23.5439C130.635 23.2978 130.077 22.9602 129.585 22.544C129.094 22.104 128.699 21.5741 128.423 20.9854C127.827 19.5707 127.827 17.989 128.423 16.5743C128.713 15.8864 129.151 15.2652 129.708 14.751C130.31 14.1967 131.023 13.7664 131.804 13.4865C132.711 13.1489 133.677 12.984 134.649 13.0012C135.777 12.9908 136.897 13.1802 137.954 13.56C138.924 13.9143 139.809 14.4545 140.554 15.1479L139.805 16.2949Z" fill="#192E43"/>
<path d="M162 34H158.979V24.4396H147.021V34H144V13H147.021V22.3665H158.979V13H162V34Z" fill="#192E43"/>
<path d="M170 13H167V34H170V13Z" fill="#192E43"/>
<path d="M178.874 23.889H182.222C182.951 23.9045 183.678 23.7935 184.37 23.5608C184.919 23.3678 185.423 23.0633 185.851 22.6661C186.273 22.2866 186.598 21.8111 186.799 21.2792C187.024 20.7153 187.135 20.112 187.125 19.5045C187.157 18.9241 187.064 18.3436 186.851 17.803C186.639 17.2624 186.313 16.7744 185.896 16.3727C184.833 15.5432 183.503 15.1394 182.163 15.2393H178.815L178.874 23.889ZM178.874 26.1408V34H176V13.0023H182.163C183.33 12.9787 184.494 13.1345 185.614 13.4646C186.506 13.7269 187.334 14.1739 188.044 14.777C188.693 15.3287 189.201 16.0294 189.525 16.8201C189.848 17.6773 190.009 18.5878 189.999 19.5045C190.014 20.4244 189.842 21.3377 189.495 22.1889C189.162 22.9871 188.656 23.7004 188.014 24.2766C187.3 24.8955 186.468 25.3622 185.57 25.6487C184.487 25.993 183.357 26.1592 182.222 26.1408H178.874Z" fill="#192E43"/>
</g>
<defs>
<clipPath id="clip0_241_163">
<rect width="194" height="45" fill="white"/>
</clipPath>
</defs>
</svg>
