<svg id="Layer_1" xmlns="http://www.w3.org/2000/svg" xmlns:xlink="http://www.w3.org/1999/xlink"
	 viewBox="0 0 1080 114.3"><style>.st0{fill:#34C3FF;}.st1{fill:#0984e3;}.st2{fill:#233644;}</style><g><g><path class="st0" d="M0,0v2.22c0,18.44,14.95,33.39,33.39,33.39h72.7v0H53.1v78.69l35.25-35.23l17.77-17.77
			c0.6,15.21,13.11,27.36,28.47,27.36h7.11V35.61V23.58V0H0z"/><path class="st1" d="M141.7,0H53.11v7.11c0,15.66,12.63,28.36,28.25,28.49l-0.01,0.01L53.1,63.85v50.45l35.25-35.23V35.61h53.35V0
			z"/></g><g><path class="st2" d="M254.11,21.56h-32.99v91.39h-21.54V21.56h-32.82V0.01h87.35V21.56z"/><path class="st2" d="M311.34,29.8l-5.89,22.55c-3.87-3.03-7.91-5.05-10.77-5.05c-10.27,0-17.67,8.08-17.67,19.36v46.29h-21.54
			V28.79h21.54v8.42c6.06-6.06,14.31-9.76,22.72-9.76C303.93,27.45,307.81,28.29,311.34,29.8z"/><path class="st2" d="M400.54,28.79v84.16H379v-5.55c-6.73,4.38-14.81,6.9-23.4,6.9c-24.07,0-43.42-19.52-43.42-43.42
			s19.36-43.42,43.42-43.42c8.58,0,16.66,2.52,23.4,6.9v-5.55H400.54z M378.16,70.87c0-13.46-9.26-23.23-21.88-23.23
			s-21.88,9.76-21.88,23.23s9.26,23.23,21.88,23.23S378.16,84.34,378.16,70.87z"/><path class="st2" d="M479.48,70.87c0-13.46-9.26-23.23-21.88-23.23c-12.79,0-21.88,9.76-21.88,23.23s9.09,23.23,21.88,23.23
			C470.22,94.1,479.48,84.34,479.48,70.87z M501.87,0v112.95h-21.54v-5.56c-6.75,4.38-14.81,6.9-23.42,6.9
			c-24.06,0-43.42-19.51-43.42-43.42c0-23.89,19.36-43.42,43.42-43.42c8.6,0,16.67,2.52,23.42,6.9V0H501.87z"/><path class="st2" d="M601.17,85.35c-1.51,3.87-14.14,27.94-43.42,27.94c-16.83,0-33.83-10.77-40.39-27.77
			c-2.02-4.88-3.03-10.27-3.03-15.65c0-24.07,19.36-43.42,43.42-43.42c23.4,0,42.41,18.51,43.26,41.74c0,0.84,0.17,1.51,0,2.19
			l-61.94,11.28c3.03,6.9,9.93,12.12,18.68,12.12c14.47,0,24.24-10.6,25.41-14.14L601.17,85.35z M536.03,65.32l40.56-7.24
			c-4.04-8.08-12.79-13.3-21.54-12.45c-8.92,0.67-16.66,7.91-18.51,17L536.03,65.32z"/><path class="st2" d="M668.99,29.8l-5.89,22.55c-3.87-3.03-7.91-5.05-10.77-5.05c-10.27,0-17.67,8.08-17.67,19.36v46.29h-21.54
			V28.79h21.54v8.42c6.06-6.06,14.31-9.76,22.72-9.76C661.59,27.45,665.46,28.29,668.99,29.8z"/><path class="st2" d="M669.83,97.63l13.63-12.29c0,0,10.27,10.27,24.41,10.27c8.25,0,13.46-2.69,13.46-6.9
			c0-8.92-50.32-7.74-50.32-35.68c0-14.98,11.95-25.58,34-25.58c23.9,0,37.7,16.66,37.7,16.66L729.08,56.4
			c0,0-10.44-10.27-24.57-10.27c-8.08,0-13.46,2.69-13.46,6.9c0,8.92,50.49,7.74,50.49,35.68c0,14.98-12.12,25.58-34.17,25.58
			C683.63,114.3,669.83,97.63,669.83,97.63z"/><path class="st0" d="M757.01,0.01h40.9c27.43,0,43.76,16.83,43.76,37.53c0,20.87-16.33,37.7-43.76,37.7h-19.36v37.7h-21.54V0.01z
			 M797.91,54.88c13.46,0,22.05-7.24,22.05-17.34s-8.58-17.34-22.05-17.34h-19.36v34.67H797.91z"/><path class="st0" d="M846.39,70.87c0-23.9,19.52-43.42,43.42-43.42c24.07,0,43.42,19.52,43.42,43.42s-19.36,43.42-43.42,43.42
			C865.91,114.3,846.39,94.77,846.39,70.87z M912.53,70.87c0-13.46-9.26-23.23-21.88-23.23c-12.79,0-21.88,9.76-21.88,23.23
			s9.09,23.23,21.88,23.23C903.28,94.1,912.53,84.34,912.53,70.87z"/><path class="st0" d="M941.14,97.63l13.63-12.29c0,0,10.27,10.27,24.41,10.27c8.25,0,13.46-2.69,13.46-6.9
			c0-8.92-50.32-7.74-50.32-35.68c0-14.98,11.95-25.58,34-25.58c23.9,0,37.7,16.66,37.7,16.66l-13.63,12.29
			c0,0-10.44-10.27-24.57-10.27c-8.08,0-13.46,2.69-13.46,6.9c0,8.92,50.49,7.74,50.49,35.68c0,14.98-12.12,25.58-34.17,25.58
			C954.95,114.3,941.14,97.63,941.14,97.63z"/><path class="st0" d="M1080,104.2c0,0-9.09,10.1-23.73,10.1c-14.47,0-25.58-7.07-25.58-24.57V48.15h-10.27V28.79h10.27V0.69
			l21.54-0.5v28.61h19.86v19.36h-19.86v35.01c0,6.9,4.04,11.11,8.75,11.11c5.72,0,9.76-4.54,9.76-7.24L1080,104.2z"/></g></g></svg>