<svg xmlns="http://www.w3.org/2000/svg" xmlns:xlink="http://www.w3.org/1999/xlink" version="1.1" id="layer" x="0px" y="0px" style="enable-background:new -153 -46 652 652;" xml:space="preserve" viewBox="-131.7 225.1 600 100.4">
<style type="text/css">
	.st0{fill:#68CDCE;}
	.st1{opacity:0.2;fill:#1D1E1C;enable-background:new    ;}
	.st2{fill:#1D1E1C;}
	.st3{fill:#38A9B4;}
	.st4{fill:#FFFFFF;}
</style>
<path class="st0" d="M95.7,255l8.2,6.7c2.4,2,3.7,3.6,3.9,6.7v23.6c0,2.9-2.3,5.3-5.3,5.4c0,0-0.1,0-0.1,0c-3,0.1-5.4-2.3-5.5-5.3  c0,0,0,0,0-0.1v-5.3l-10.8-10v15.3c0,3-2.4,5.4-5.4,5.4c0,0,0,0,0,0c-3,0-5.4-2.4-5.5-5.4v-23.6c0.3-3.1,1.7-4.7,4-6.7l8-6.7  C90.3,252.5,92.6,252.4,95.7,255z M96.9,275.8v-11.3H86.1v11.3H96.9z"/>
<path class="st0" d="M124,286.3v5.2c0,3.1-2.2,5.5-5.3,5.5c-3,0-5.5-2.5-5.5-5.5v-28.9c0-5.1,4.1-9.2,9.2-9.2h8.3  c2.4,0,4.7,0.9,6.4,2.6l6,6c3.9,3.7,3.2,12.9-0.6,16.6l-5.4,5.2c-1.7,1.7-4,2.7-6.4,2.6H124z M134.5,275.4v-11.1l-10.3-0.1v11.3  L134.5,275.4z"/>
<path class="st0" d="M149.5,292.3v-20.1c0-2.7,2.3-5.1,5.5-5.1c3.2,0,5.5,2.2,5.5,4.9v20.4c0,2.7-2.4,4.9-5.5,4.9  C151.9,297.2,149.5,294.9,149.5,292.3z M160.2,264.5h-10.6v-11.1h10.6V264.5z"/>
<path class="st0" d="M198.5,286.3v5.2c0,3.1-2.2,5.5-5.3,5.5c-3,0-5.5-2.5-5.5-5.5v-28.9c0-5.1,4.1-9.2,9.2-9.2h8.3  c2.4,0,4.7,0.9,6.4,2.6l6,6c3.9,3.7,3.2,12.9-0.6,16.6l-5.4,5.2c-1.7,1.7-4,2.7-6.4,2.6H198.5z M208.9,275.4v-11.1l-10.3-0.1v11.3  L208.9,275.4z"/>
<path class="st0" d="M223.4,287.6v-29.1c0.1-3,2.5-5.3,5.5-5.4c3-0.1,5.5,2.3,5.5,5.3c0,0,0,0,0,0v27.6c5.5,0,3.9-0.1,9.3-0.1  c7.2,0,7.2,11,0,11h-10.9C227.6,297,223.4,292.8,223.4,287.6z"/>
<path class="st0" d="M272.5,255l8.2,6.7c2.4,2,3.7,3.6,3.9,6.7v23.6c0,2.9-2.3,5.3-5.3,5.4c0,0-0.1,0-0.1,0c-3,0.1-5.4-2.3-5.5-5.3  c0,0,0,0,0-0.1v-5.3l-10.8-10v15.3c-0.1,3-2.6,5.4-5.6,5.3c-2.9-0.1-5.2-2.4-5.3-5.3v-23.6c0.3-3.1,1.7-4.7,4-6.7l8-6.7  C267.1,252.5,269.4,252.4,272.5,255z M273.6,275.8v-11.3h-10.8v11.3H273.6z"/>
<path class="st0" d="M310.3,253.4c7,0,7,10.8,0,10.8h-4.7v27.6c0,7.3-10.9,7.3-10.9,0v-27.6h-4.7c-7.1,0-7.1-10.8,0-10.8H310.3z"/>
<path class="st0" d="M329.5,264.3v7.2h9.8c3,0,5.4,2.4,5.4,5.4c-0.1,3-2.5,5.5-5.5,5.5h-9.7v9.5c0,7.1-10.9,7.1-10.9,0v-29.3  c0-5.1,4.1-9.2,9.1-9.2c0,0,0,0,0,0h13.9c3,0,5.4,2.4,5.5,5.4c-0.1,3-2.5,5.5-5.5,5.5L329.5,264.3z"/>
<path class="st0" d="M359.8,253.5h12.4c5.1,0,9.2,4.1,9.2,9.2v25c0,4.5-4.3,9.2-8.9,9.2h-13c-4.6,0-9.2-4.7-9.2-9.2v-25  C350.3,257.3,354.8,253.5,359.8,253.5z M370.6,264.4h-9.3v21.8h9.3V264.4z"/>
<path class="st0" d="M412,279.2c3.9,2.4,5.2,5.4,5.2,9.3v3.2c0,2.9-2.4,5.3-5.3,5.3s-5.3-2.4-5.3-5.3c0,0,0,0,0,0v-3L396,275.7v16  c0,3-2.4,5.4-5.3,5.4c0,0,0,0,0,0c-3,0-5.5-2.4-5.5-5.4c0,0,0,0,0,0v-32.8c0-3,2.4-5.5,5.4-5.5c0,0,0,0,0.1,0h12.1  c2.4,0,4.8,1,6.5,2.7l5.3,5.1c1.9,1.7,2.9,4.2,2.9,6.7v2.4C417.5,274.6,415.5,277.5,412,279.2z M395.9,264.3v10.5h10.6v-10.5  L395.9,264.3z"/>
<path class="st0" d="M439.9,255.1l4.7,5l4.7-5c2.6-2.7,6.3-2.7,8.8,0l6.3,6.6c1.9,2.2,3.5,3.5,3.9,6.6V292c0,7-11,7-11,0v-27.6h-7.3  V292c0,7.2-10.9,7.2-10.9,0v-27.6h-7.2V292c0,7-11,7-11,0v-23.7c0.1-3.1,1.9-4.4,3.9-6.6l6.4-6.6  C433.7,252.4,437.5,252.4,439.9,255.1z"/>
<g id="Spider">
	<g id="_Groupe_">
		<ellipse id="_Tracé_" class="st1" cx="-73" cy="303" rx="13.1" ry="3.3"/>
		<ellipse id="_Tracé_2" class="st1" cx="-100.1" cy="302.3" rx="13.1" ry="3.3"/>
		<ellipse id="_Tracé_3" class="st1" cx="-93.7" cy="321.8" rx="13.1" ry="3.3"/>
		<ellipse id="_Tracé_4" class="st1" cx="-118.6" cy="312.5" rx="13.1" ry="3.3"/>
	</g>
	<g id="_Groupe_2">
		<polygon id="_Tracé_5" class="st2" points="-87.3,301.3 -89.7,301.3 -89.7,248.7 -66.5,261.2 -67.6,263.3 -87.3,252.7   "/>
		<polygon id="_Tracé_6" class="st2" points="-105.5,311.7 -107.9,311.4 -101.3,259.1 -66.1,264.3 -66.5,266.7 -99.2,261.8   "/>
		<polygon id="_Tracé_7" class="st2" points="-83.2,319 -84.4,271.6 -67.4,266.7 -66.7,269 -81.9,273.4 -80.9,319   "/>
		<polygon id="_Tracé_8" class="st2" points="-64.3,299.2 -72.1,275.7 -61,273 -60.5,275.3 -69,277.4 -62,298.4   "/>
		<path id="_Tracé_9" class="st2" d="M-64.1,298.9c0,0-2.3-3.9-5.8-1.4c-3.5,2.5-1.5,6-1.5,6s1.2,1.1,5.1,1.2    c3.9,0.1,4.8,0,5.6-0.8c0.7-0.8-1.7-7.1-1.7-7.1L-64.1,298.9z"/>
		<path id="_Tracé_10" class="st2" d="M-109,307.6c0,0-3.7-5.5-8.6-2c-4.9,3.5-2.1,8.3-2.1,8.3s1.6,1.2,7,1.2    c7.1,0,6.9-2.1,7.4-3.6c0.8-2.5-1.8-7-1.8-7L-109,307.6z"/>
		<path id="_Tracé_11" class="st2" d="M-90.1,298.9c0,0-4.9-6.9-9.8-3.4c-4.9,3.5-2,8.3-2,8.3s1.6,1.2,7,1.2c7.1,0,7.4-1.4,7.9-2.9    c0.8-2.5-2.2-7.7-2.2-7.7L-90.1,298.9z"/>
		<path id="_Tracé_12" class="st2" d="M-83.5,317.5c0,0-4.4-6.7-9.3-3.2c-4.9,3.5-2.1,8.3-2.1,8.3s1.6,1.4,7,1.4    c7.1,0,7.2-2.3,7.2-3.8c0.1-7.6-2.5-7-2.5-7L-83.5,317.5z"/>
	</g>
	<g id="_Groupe_3">
		<polygon id="_Tracé_13" class="st2" points="-2.3,301.6 0.1,301.6 0.1,249 -23.2,261.5 -22,263.6 -2.3,253   "/>
		<polygon id="_Tracé_14" class="st2" points="15.9,312 18.2,311.7 11.6,259.4 -23.5,264.7 -23.2,267 9.5,262.1   "/>
		<polygon id="_Tracé_15" class="st2" points="-6.4,319.4 -5.3,272 -22.3,267 -22.9,269.3 -7.7,273.8 -8.8,319.3   "/>
		<polygon id="_Tracé_16" class="st2" points="-25.4,299.5 -17.6,276 -28.6,273.3 -29.2,275.7 -20.7,277.7 -27.7,298.7   "/>
		<path id="_Tracé_17" class="st2" d="M-25.6,299.2c0,0,2.3-4,5.8-1.4s1.5,6,1.5,6s-1.2,1.1-5.1,1.2c-3.9,0.1-4.8,0-5.6-0.8    c-0.7-0.8,1.7-7.1,1.7-7.1L-25.6,299.2z"/>
		<path id="_Tracé_18" class="st2" d="M19.3,307.9c0,0,3.7-5.5,8.6-2c4.9,3.5,2.1,8.3,2.1,8.3s-1.6,1.2-7,1.2    c-7.1,0-6.9-2.1-7.4-3.6c-0.8-2.5,1.8-7,1.8-7L19.3,307.9z"/>
		<path id="_Tracé_19" class="st2" d="M0.4,299.2c0,0,4.9-6.9,9.8-3.4c4.9,3.5,2,8.3,2,8.3s-1.6,1.2-7,1.2c-7.1,0-7.4-1.4-7.9-2.9    c-0.8-2.5,2.2-7.7,2.2-7.7L0.4,299.2z"/>
		<path id="_Tracé_20" class="st2" d="M-6.2,317.8c0,0,4.4-6.7,9.3-3.2c4.9,3.5,2.1,8.3,2.1,8.3s-1.6,1.4-7,1.4    c-7.1,0-7.2-2.3-7.2-3.8c-0.1-7.6,2.5-7,2.5-7L-6.2,317.8z"/>
	</g>
	<g id="_Groupe_4">
		<path id="_Tracé_21" class="st3" d="M-18.1,257.8c0,14.5-11.5,22.1-25.7,22.1s-25-7.6-25-22.1c0-14.5,10.8-19.5,25-19.5    S-18.1,243.4-18.1,257.8z"/>
		<path id="_Tracé_transparent_" class="st2" d="M-44.2,281.1c-7.5,0-14-2-18.6-5.9c-5-4.1-7.6-10.1-7.6-17.4    c0-13.5,9.1-20.7,26.2-20.7c17.4,0,26.9,7.3,26.9,20.7c0,7.2-2.8,13.2-8,17.4C-30,279-36.7,281.1-44.2,281.1z M-44.2,239.6    c-15.8,0-23.8,6.1-23.8,18.3c0,12.9,9.1,20.9,23.8,20.9c14.9,0,24.5-8.2,24.5-20.9C-19.6,242.7-33,239.6-44.2,239.6z"/>
	</g>
	<g id="_Groupe_5">
		<ellipse id="_Tracé_22" class="st4" cx="-53.6" cy="242.5" rx="16" ry="16.6"/>
		<path id="_Tracé_transparent_2" class="st2" d="M-53.9,259.9c-9.3,0-16.9-7.8-16.9-17.4s7.6-17.4,16.9-17.4s16.9,7.8,16.9,17.4    S-44.6,259.9-53.9,259.9z M-53.9,226.7c-8.4,0-15.2,7.1-15.2,15.8s6.8,15.8,15.2,15.8s15.2-7.1,15.2-15.8S-45.5,226.7-53.9,226.7z    "/>
	</g>
	<g id="_Groupe_6">
		<ellipse id="_Tracé_23" class="st4" cx="-29.6" cy="245.2" rx="13.2" ry="13"/>
		<path id="_Tracé_transparent_3" class="st2" d="M-29.9,259c-7.8,0-14.1-6.2-14.1-13.8c0-7.6,6.3-13.8,14.1-13.8    s14.1,6.2,14.1,13.8C-15.8,252.8-22.1,259-29.9,259z M-29.9,233c-6.8,0-12.4,5.4-12.4,12.1c0,6.7,5.6,12.2,12.4,12.2    s12.4-5.4,12.4-12.1C-17.5,238.5-23.1,233-29.9,233z"/>
	</g>
	<circle id="_Tracé_24" class="st2" cx="-52.5" cy="243.3" r="7.4"/>
	<circle id="_Tracé_25" class="st4" cx="-48.6" cy="242.2" r="2"/>
	<ellipse id="_Tracé_26" class="st2" cx="-28.5" cy="246" rx="6" ry="5.7"/>
	<circle id="_Tracé_27" class="st4" cx="-29.7" cy="244.9" r="1.6"/>
	<g id="_Groupe_7">
		<ellipse id="_Tracé_28" class="st1" cx="-16.4" cy="303.5" rx="13.1" ry="3.3"/>
		<ellipse id="_Tracé_29" class="st1" cx="10.7" cy="302.7" rx="13.1" ry="3.3"/>
		<ellipse id="_Tracé_30" class="st1" cx="4.2" cy="322.2" rx="13.1" ry="3.3"/>
		<ellipse id="_Tracé_31" class="st1" cx="29.1" cy="312.9" rx="13.1" ry="3.3"/>
	</g>
</g>
</svg>