<svg viewBox="56.531 96.03 395.273 61.522" xmlns="http://www.w3.org/2000/svg"><defs><linearGradient gradientUnits="userSpaceOnUse" y2="79" x2="43.134" y1="18" x1="43.134" id="b"><stop stop-color="#1DFFF1"/><stop stop-color="#860DFF" offset="1"/></linearGradient><linearGradient gradientUnits="userSpaceOnUse" y2="79" x2="43.133" y1="18" x1="43.133" id="c"><stop stop-color="#1DFFF1"/><stop stop-color="#860DFF" offset="1"/></linearGradient><clipPath id="a"><path fill="#fff" d="M0 0h423v98H0z"/></clipPath></defs><g clip-path="url(#a)" transform="translate(43.815 78.26)"><path style="fill:#262626" d="M104.912 39.344c1.024-1.664 2.496-3.008 4.416-4.032 1.92-1.024 4.117-1.536 6.592-1.536 2.944 0 5.611.747 8 2.24 2.389 1.493 4.267 3.627 5.632 6.4 1.408 2.773 2.112 5.995 2.112 9.664 0 3.67-.704 6.912-2.112 9.728-1.365 2.773-3.243 4.928-5.632 6.464-2.389 1.493-5.056 2.24-8 2.24-2.517 0-4.715-.49-6.592-1.472-1.877-1.024-3.349-2.368-4.416-4.032V70H93.968V22.64h10.944v16.704Zm15.616 12.736c0-2.73-.768-4.864-2.304-6.4-1.493-1.579-3.349-2.368-5.568-2.368-2.176 0-4.032.79-5.568 2.368-1.493 1.579-2.24 3.733-2.24 6.464 0 2.73.747 4.885 2.24 6.464 1.536 1.579 3.392 2.368 5.568 2.368 2.176 0 4.032-.79 5.568-2.368 1.536-1.621 2.304-3.797 2.304-6.528Zm14.702 0c0-3.67.682-6.89 2.048-9.664 1.408-2.773 3.306-4.907 5.696-6.4 2.389-1.493 5.056-2.24 8-2.24 2.517 0 4.714.512 6.592 1.536 1.92 1.024 3.392 2.368 4.416 4.032v-5.056h10.944V70h-10.944v-5.056c-1.067 1.664-2.56 3.008-4.48 4.032-1.878 1.024-4.075 1.536-6.592 1.536-2.902 0-5.547-.747-7.936-2.24-2.39-1.536-4.288-3.69-5.696-6.464-1.366-2.816-2.048-6.059-2.048-9.728Zm26.752.064c0-2.73-.768-4.885-2.304-6.464-1.494-1.579-3.328-2.368-5.504-2.368-2.176 0-4.032.79-5.568 2.368-1.494 1.536-2.24 3.67-2.24 6.4 0 2.73.746 4.907 2.24 6.528 1.536 1.579 3.392 2.368 5.568 2.368 2.176 0 4.01-.79 5.504-2.368 1.536-1.579 2.304-3.733 2.304-6.464ZM202.667 70l-10.88-14.976V70h-10.944V22.64h10.944v26.176l10.816-14.528h13.504l-14.848 17.92L216.235 70h-13.568Zm32.267.512c-3.115 0-5.888-.533-8.32-1.6-2.432-1.067-4.352-2.517-5.76-4.352-1.408-1.877-2.198-3.968-2.368-6.272h10.816c.128 1.237.704 2.24 1.728 3.008 1.024.768 2.282 1.152 3.776 1.152 1.365 0 2.41-.256 3.136-.768.768-.555 1.152-1.259 1.152-2.112 0-1.024-.534-1.77-1.6-2.24-1.067-.512-2.795-1.067-5.184-1.664-2.56-.597-4.694-1.216-6.4-1.856a11.486 11.486 0 0 1-4.416-3.136c-1.238-1.45-1.856-3.392-1.856-5.824 0-2.048.554-3.904 1.664-5.568 1.152-1.707 2.816-3.05 4.992-4.032 2.218-.981 4.842-1.472 7.872-1.472 4.48 0 8 1.11 10.56 3.328 2.602 2.219 4.096 5.163 4.48 8.832h-10.112c-.171-1.237-.726-2.219-1.664-2.944-.896-.725-2.091-1.088-3.584-1.088-1.28 0-2.262.256-2.944.768-.683.47-1.024 1.13-1.024 1.984 0 1.024.533 1.792 1.6 2.304 1.109.512 2.816 1.024 5.12 1.536 2.645.683 4.8 1.365 6.464 2.048 1.664.64 3.114 1.707 4.352 3.2 1.28 1.45 1.941 3.413 1.984 5.888 0 2.09-.598 3.968-1.792 5.632-1.152 1.621-2.838 2.901-5.056 3.84-2.176.939-4.715 1.408-7.616 1.408Zm32.103-47.872V70h-10.944V22.64h10.944Zm5.755 29.44c0-3.67.683-6.89 2.048-9.664 1.408-2.773 3.307-4.907 5.696-6.4 2.389-1.493 5.056-2.24 8-2.24 2.517 0 4.715.512 6.592 1.536 1.92 1.024 3.392 2.368 4.416 4.032v-5.056h10.944V70h-10.944v-5.056c-1.067 1.664-2.56 3.008-4.48 4.032-1.877 1.024-4.075 1.536-6.592 1.536-2.901 0-5.547-.747-7.936-2.24-2.389-1.536-4.288-3.69-5.696-6.464-1.365-2.816-2.048-6.059-2.048-9.728Zm26.752.064c0-2.73-.768-4.885-2.304-6.464-1.493-1.579-3.328-2.368-5.504-2.368-2.176 0-4.032.79-5.568 2.368-1.493 1.536-2.24 3.67-2.24 6.4 0 2.73.747 4.907 2.24 6.528 1.536 1.579 3.392 2.368 5.568 2.368 2.176 0 4.011-.79 5.504-2.368 1.536-1.579 2.304-3.733 2.304-6.464Zm23.982 18.368c-1.92 0-3.499-.555-4.736-1.664-1.195-1.152-1.792-2.56-1.792-4.224 0-1.707.597-3.136 1.792-4.288 1.237-1.152 2.816-1.728 4.736-1.728 1.877 0 3.413.576 4.608 1.728 1.237 1.152 1.856 2.581 1.856 4.288 0 1.664-.619 3.072-1.856 4.224-1.195 1.11-2.731 1.664-4.608 1.664Zm27.47 0c-3.115 0-5.888-.533-8.32-1.6-2.432-1.067-4.352-2.517-5.76-4.352-1.408-1.877-2.197-3.968-2.368-6.272h10.816c.128 1.237.704 2.24 1.728 3.008 1.024.768 2.283 1.152 3.776 1.152 1.365 0 2.411-.256 3.136-.768.768-.555 1.152-1.259 1.152-2.112 0-1.024-.533-1.77-1.6-2.24-1.067-.512-2.795-1.067-5.184-1.664-2.56-.597-4.693-1.216-6.4-1.856a11.486 11.486 0 0 1-4.416-3.136c-1.237-1.45-1.856-3.392-1.856-5.824 0-2.048.555-3.904 1.664-5.568 1.152-1.707 2.816-3.05 4.992-4.032 2.219-.981 4.843-1.472 7.872-1.472 4.48 0 8 1.11 10.56 3.328 2.603 2.219 4.096 5.163 4.48 8.832h-10.112c-.171-1.237-.725-2.219-1.664-2.944-.896-.725-2.091-1.088-3.584-1.088-1.28 0-2.261.256-2.944.768-.683.47-1.024 1.13-1.024 1.984 0 1.024.533 1.792 1.6 2.304 1.109.512 2.816 1.024 5.12 1.536 2.645.683 4.8 1.365 6.464 2.048 1.664.64 3.115 1.707 4.352 3.2 1.28 1.45 1.941 3.413 1.984 5.888 0 2.09-.597 3.968-1.792 5.632-1.152 1.621-2.837 2.901-5.056 3.84-2.176.939-4.715 1.408-7.616 1.408Zm43.112-36.608c4.096 0 7.381 1.365 9.856 4.096 2.474 2.688 3.712 6.4 3.712 11.136V70h-10.88V50.608c0-2.39-.619-4.245-1.856-5.568-1.238-1.323-2.902-1.984-4.992-1.984-2.091 0-3.755.661-4.992 1.984-1.238 1.323-1.856 3.179-1.856 5.568V70h-10.944V22.64H383.1v16.448c1.109-1.579 2.624-2.837 4.544-3.776 1.92-.939 4.074-1.408 6.464-1.408Z"/><circle fill="url(#b)" r="30.5" cy="48.5" cx="43.134"/><circle fill="url(#c)" transform="rotate(45 43.133 48.5)" r="30.5" cy="48.5" cx="43.133"/><path fill="#fff" d="M37.219 61.456a628.22 628.22 0 0 0-4.411-12.498c-1.509-4.194-3-8.365-4.475-12.512l-.278-.89c-.262-.648-.17-1.106.276-1.374.494-.297 1.096-.475 1.803-.531.757-.087 1.39-.099 1.9-.036 1.16.074 2.303.343 3.428.806 1.167.473 1.933 1.103 2.297 1.89.08.255.151.547.215.878.114.3.249.605.404.914a302.107 302.107 0 0 0 1.836 5.49 554.58 554.58 0 0 1 2.036 5.471l1.16 3.33a434.78 434.78 0 0 0 2.279 6.532c.78 2.182 1.578 4.387 2.393 6.615.095.178.192.455.29.832.106.34.087.653-.058.941-.366.523-.931.846-1.696.97-.757.087-1.498.097-2.225.03-1.167-.035-2.335-.289-3.502-.761-1.16-.51-1.9-1.155-2.222-1.935a27.794 27.794 0 0 1-.837-2.014l-.613-2.148ZM49.182 55.51a627.995 627.995 0 0 0-4.41-12.498c-1.51-4.194-3-8.364-4.475-12.511l-.278-.89c-.262-.648-.17-1.106.275-1.374.495-.298 1.096-.475 1.804-.531.757-.087 1.39-.099 1.9-.036 1.16.073 2.302.342 3.427.806 1.168.473 1.933 1.103 2.297 1.89.08.255.152.547.216.877.114.301.248.606.404.915a302.107 302.107 0 0 0 1.836 5.49 554.58 554.58 0 0 1 2.035 5.471l1.16 3.33a434.78 434.78 0 0 0 2.28 6.532c.78 2.182 1.578 4.386 2.393 6.615.095.177.191.455.29.832.106.339.086.653-.058.941-.366.522-.931.846-1.696.97-.757.087-1.499.097-2.225.03-1.168-.035-2.335-.289-3.502-.761-1.16-.51-1.9-1.156-2.223-1.935a27.794 27.794 0 0 1-.836-2.014l-.614-2.148Z"/></g></svg>