<svg width="336" height="212" xmlns="http://www.w3.org/2000/svg" xmlns:data="ChartNS"><g transform="translate(2 30)"><defs><linearGradient id="a" x1="0" y1="0" x2="0" y2="1"><stop stop-opacity=".55" stop-color="rgba(26,86,219,0.55)" offset="0"/><stop stop-opacity="0" stop-color="rgba(28,100,242,0)" offset="1"/><stop stop-opacity="0" stop-color="rgba(28,100,242,0)" offset="1"/></linearGradient><linearGradient id="b" x1="0" y1="0" x2="0" y2="1"><stop stop-opacity=".55" stop-color="rgba(126,59,242,0.55)" offset="0"/><stop stop-opacity="0" stop-color="rgba(126,59,242,0)" offset="1"/><stop stop-opacity="0" stop-color="rgba(126,59,242,0)" offset="1"/></linearGradient></defs><path stroke="#b6b6b6" stroke-dasharray="3" fill="#b1b9c4" filter="none" fill-opacity=".9" d="M265.1 0v150"/><g data:longestSeries="true" data:realIndex="0"><path d="M0 150V32.143c23.24 0 43.16 8.786 66.4 8.786 23.24 0 43.16-4.072 66.4-4.072 23.24 0 43.16-7.5 66.4-7.5 23.24 0 43.16 18.214 66.4 18.214 23.24 0 43.16 10.715 66.4 10.715V150m0-91.714z" fill="url(#a)" clip-path="url(#gridRectMask5ztfprld)"/><path d="M0 32.143c23.24 0 43.16 8.786 66.4 8.786 23.24 0 43.16-4.072 66.4-4.072 23.24 0 43.16-7.5 66.4-7.5 23.24 0 43.16 18.214 66.4 18.214 23.24 0 43.16 10.715 66.4 10.715" fill="none" stroke="#1a56db" stroke-width="6" stroke-dasharray="0" clip-path="url(#gridRectMask5ztfprld)"/></g><g data:longestSeries="true" data:realIndex="1"><path d="M0 150v-26.036c23.24 0 43.16 24.643 66.4 24.643 23.24 0 43.16-37.714 66.4-37.714 23.24 0 43.16 37.821 66.4 37.821 23.24 0 43.16-108.321 66.4-108.321 23.24 0 43.16-33 66.4-33V150m0-142.607z" fill="url(#b)" clip-path="url(#gridRectMask5ztfprld)"/><path d="M0 123.964c23.24 0 43.16 24.643 66.4 24.643 23.24 0 43.16-37.714 66.4-37.714 23.24 0 43.16 37.821 66.4 37.821 23.24 0 43.16-108.321 66.4-108.321 23.24 0 43.16-33 66.4-33" fill="none" stroke="#7e3bf2" stroke-width="6" stroke-dasharray="0" clip-path="url(#gridRectMask5ztfprld)"/></g></g></svg>