<svg xmlns="http://www.w3.org/2000/svg" xml:space="preserve" width="64" height="64" viewBox="0 0 16.93 16.93"><defs><linearGradient id="b" x1="43.13" x2="43.13" y1="18" y2="79" gradientUnits="userSpaceOnUse"><stop stop-color="#1DFFF1"/><stop offset="1" stop-color="#860DFF"/></linearGradient><linearGradient id="c" x1="43.13" x2="43.13" y1="18" y2="79" gradientUnits="userSpaceOnUse"><stop stop-color="#1DFFF1"/><stop offset="1" stop-color="#860DFF"/></linearGradient><clipPath id="a"><path fill="#fff" d="M0 0h423v98H0z"/></clipPath></defs><g clip-path="url(#a)" transform="matrix(.277541 0 0 .277541 -3.505 -4.996)"><circle cx="43.13" cy="48.5" r="30.5" fill="url(#b)"/><circle cx="43.13" cy="48.5" r="30.5" fill="url(#c)" transform="rotate(45 43.13 48.5)"/><path fill="#fff" d="M37.22 61.46a628.22 628.22 0 0 0-4.41-12.5l-4.48-12.51-.27-.9c-.27-.64-.17-1.1.27-1.37.5-.3 1.1-.47 1.8-.53a10.76 10.76 0 0 1 5.33.77c1.17.47 1.93 1.1 2.3 1.9.08.25.15.54.21.87.12.3.25.6.4.91a302.1 302.1 0 0 0 1.84 5.5 554.58 554.58 0 0 1 2.04 5.46l1.16 3.33a434.78 434.78 0 0 0 2.28 6.54 955.4 955.4 0 0 0 2.68 7.44c.1.34.09.66-.06.94-.36.53-.93.85-1.7.97-.75.1-1.49.1-2.22.03a10.1 10.1 0 0 1-3.5-.76c-1.16-.5-1.9-1.15-2.22-1.93a27.8 27.8 0 0 1-.84-2.02Zm11.96-5.95a628 628 0 0 0-4.4-12.5c-1.52-4.2-3-8.36-4.48-12.5l-.28-.9c-.26-.65-.17-1.1.27-1.37.5-.3 1.1-.48 1.8-.53a10.7 10.7 0 0 1 5.33.77c1.17.47 1.94 1.1 2.3 1.89.08.25.15.54.22.87.11.3.25.6.4.92a302.1 302.1 0 0 0 1.84 5.49 554.58 554.58 0 0 1 2.03 5.47l1.16 3.33a434.78 434.78 0 0 0 2.28 6.53 974.6 974.6 0 0 0 2.69 7.45c.1.34.08.65-.06.94-.37.52-.93.85-1.7.97-.75.09-1.5.1-2.22.03a10.1 10.1 0 0 1-3.5-.76c-1.16-.51-1.9-1.16-2.23-1.94a27.8 27.8 0 0 1-.83-2.01Z"/></g></svg>
