<svg xmlns="http://www.w3.org/2000/svg" viewBox="12.193 17.351 62.137 62.36"><circle cx="43.134" cy="48.5" r="30.5" fill="#1a171b"/><g fill="#fff"><path d="M37.219 61.456l-4.411-12.499-4.474-12.511-.278-.89c-.262-.648-.17-1.106.276-1.374.495-.298 1.096-.475 1.804-.532.757-.086 1.39-.098 1.9-.036 1.16.074 2.303.343 3.428.807 1.167.472 1.933 1.102 2.297 1.89.08.254.152.547.216.877a9.48 9.48 0 0 0 .404.915l1.836 5.49 2.035 5.471 1.16 3.33 2.28 6.532 2.394 6.615c.095.178.191.455.29.832.106.339.087.653-.058.941-.366.522-.931.846-1.696.97-.757.086-1.499.097-2.225.03a10.11 10.11 0 0 1-3.502-.762c-1.159-.51-1.9-1.155-2.223-1.935l-.836-2.014-.613-2.148zm11.964-5.945l-4.411-12.499-4.474-12.511-.278-.89c-.262-.648-.17-1.106.276-1.374.495-.298 1.096-.475 1.804-.532.757-.086 1.39-.098 1.9-.036 1.16.074 2.303.343 3.428.807 1.167.472 1.933 1.102 2.297 1.89.08.254.151.547.216.877a9.48 9.48 0 0 0 .404.915l1.836 5.49 2.035 5.471 1.16 3.33 2.28 6.532 2.394 6.615c.095.178.191.455.29.832.106.339.087.653-.058.941-.366.522-.931.846-1.696.97-.757.086-1.499.096-2.225.03a10.11 10.11 0 0 1-3.502-.762c-1.159-.511-1.9-1.155-2.223-1.935l-.836-2.014-.613-2.148z"/></g></svg>
