<svg viewBox="267.121 267.84 531.36 529.2" xml:space="preserve" xmlns="http://www.w3.org/2000/svg"><circle r="35" style="stroke:#000;stroke-width:0;stroke-dasharray:none;stroke-linecap:butt;stroke-dashoffset:0;stroke-linejoin:miter;stroke-miterlimit:4;fill:#fff;fill-rule:nonzero;opacity:1" transform="matrix(6.94 0 0 6.94 534 535)"/><path d="M1830 3994c-300-37-512-98-743-216-368-188-677-497-865-865C70 2615 5 2342 5 2000c0-215 14-324 65-519C211 944 589 476 1087 222 1385 70 1658 5 2000 5c215 0 324 14 519 65 537 141 1005 519 1259 1017 152 298 217 571 217 913 0 215-14 324-65 519-141 537-519 1005-1017 1259-191 97-385 161-603 197-91 16-407 28-480 19zm1280-673c137-52 201-167 154-279-32-78-101-120-175-106-112 21-155 124-96 225 32 55 33 63 7 89-33 33-131 28-208-11-77-38-121-89-178-204-61-125-105-294-167-642l-6-31 67-7c146-14 332 45 332 106 0 10-12 43-26 72-31 62-28 89 12 136 28 33 91 56 127 45 53-16 97-83 97-146-1-80-80-180-183-231-94-46-161-59-307-62l-135-3-36-198c-20-110-46-239-58-287-11-49-21-90-21-93 0-2 295-5 656-6 613-3 658-4 668-20 8-13 8-23 0-35-11-17-99-18-1634-18s-1623 1-1634 18c-8 12-8 22 0 35 10 15 34 17 223 20l212 2-26 35c-109 142-43 349 104 330 124-15 168-133 101-270-47-96-50-95 169-95h187l17 35c21 43 22 104 3 148-7 18-49 70-93 117s-99 111-121 144c-165 235-96 505 162 631 102 50 205 64 316 42 143-28 235-81 399-231 40-37 76-64 80-59 4 4 20 42 36 83 147 391 388 657 659 731 93 25 236 21 316-10zM1295 1246c57-61 57-61-70-334-63-136-115-260-115-275 0-40 26-34 72 15 68 74 271 349 338 456 34 57 78 120 96 139 30 32 38 35 70 30 42-7 89-47 98-83 4-16-25-104-94-282-94-243-112-302-92-302 14 0 134 80 175 117 40 36 57 36 57-1 0-68-215-240-335-267-29-6-64-9-78-5-35 8-87 54-87 76 0 9 16 53 36 96 37 81 94 214 94 220 0 2-6 4-12 3-7 0-44-44-83-97-90-123-246-282-306-310-68-33-104-29-149 16-48 48-64 101-46 151 7 20 52 125 99 233 93 210 102 244 65 232-25-7-143-88-153-104-11-17-45-11-45 8 0 70 188 240 313 283 81 28 114 25 152-15zm1050 22c37-17 58-57 100-193l37-120 24 30c13 17 57 75 97 130 89 122 139 160 209 160 45 0 53-4 85-39 31-34 35-43 30-78-4-27-16-51-38-74-43-44-81-46-106-4-14 24-24 30-52 30-30 0-44-9-96-63-33-34-76-89-94-121l-35-58 29-116c30-115 55-172 76-172 13 0 74 61 105 104 45 65 60-10 18-90-51-97-150-174-223-174-80 0-124 52-152 182-26 120-29 129-39 123-5-3-37-46-70-94-99-145-182-211-265-211-92 0-117 116-42 198 28 30 53 28 94-8 18-17 38-30 44-30 46 0 219 181 219 229-1 32-74 279-88 293s-59-12-107-61c-48-50-65-52-65-9 0 40 31 103 70 145 83 88 169 121 235 91z" transform="matrix(.13 0 0 -.13 273.35 793.485)" style="stroke:none;stroke-width:1;stroke-dasharray:none;stroke-linecap:butt;stroke-dashoffset:0;stroke-linejoin:miter;stroke-miterlimit:4;fill:#000;fill-rule:nonzero;opacity:1"/><path d="M1500 2694c-75-32-120-96-120-169 0-66 18-99 115-205 181-200 237-326 205-462-14-57-43-122-68-150-14-17-7-18 131-18 144 0 147 0 151 23 3 12 17 87 31 167s47 231 73 335c25 105 47 193 47 197 0 13-221 201-270 229-107 62-225 83-295 53z" transform="matrix(.13 0 0 -.13 277.925 797.788)" style="stroke:none;stroke-width:1;stroke-dasharray:none;stroke-linecap:butt;stroke-dashoffset:0;stroke-linejoin:miter;stroke-miterlimit:4;fill:#000;fill-rule:nonzero;opacity:1"/></svg>